<?xml version="1.0" encoding="utf-8"?>
<!-- Generator: Adobe Illustrator 25.0.1, SVG Export Plug-In . SVG Version: 6.00 Build 0)  -->
<svg version="1.1" id="Layer_1" xmlns="http://www.w3.org/2000/svg" xmlns:xlink="http://www.w3.org/1999/xlink" x="0px" y="0px"
	 viewBox="0 0 1920 1080" style="enable-background:new 0 0 1920 1080;" xml:space="preserve">
<style type="text/css">
	.st0{fill:#1A1A1A;}
	.st1{fill:#333333;}
</style>
<rect class="st0" width="1920" height="1080"/>
<path class="st1" d="M930.2,84.1c-13.2,0-23.9,10.3-23.9,23.1s10.7,23.1,23.9,23.1c5.1,0,9.7-1.5,13.6-4.1l45.2,43.7v108.5l-25.9,25
	c-4.7-3.3-10.4-5.4-16.6-5.4c-15.5,0-28.1,12.2-28.1,27.2s12.6,27.2,28.1,27.2c15.5,0,28.1-12.2,28.1-27.2c0-6-2.1-11.5-5.5-16
	l28.4-27.4V166.5l-47.7-46.1c2.7-3.7,4.3-8.3,4.3-13.2C954.1,94.5,943.4,84.1,930.2,84.1z M946.6,344.2c-10.8,0-19.6-8.5-19.6-19
	c0-10.5,8.8-19,19.6-19c10.8,0,19.7,8.5,19.7,19C966.2,335.7,957.4,344.2,946.6,344.2z"/>
<path class="st1" d="M810.3,307.7c0-12.8-10.7-23.1-23.9-23.1c-13.2,0-23.9,10.3-23.9,23.1c0,11.4,8.5,20.7,19.7,22.7v159.9
	l40.7,39.3v68.6c-11.2,1.9-19.7,11.3-19.7,22.7c0,12.8,10.7,23.1,23.9,23.1c13.2,0,23.9-10.3,23.9-23.1c0-11.4-8.5-20.7-19.6-22.7
	v-72l-40.7-39.3V330.3C801.8,328.4,810.3,319,810.3,307.7z"/>
<path class="st1" d="M880.2,419.1c-13.2,0-23.9,10.3-23.9,23.1c0,12.8,10.7,23.1,23.9,23.1c5.1,0,9.7-1.5,13.6-4.1l35.6,34.4v105
	c-11.2,1.9-19.7,11.3-19.7,22.7c0,12.8,10.7,23.1,23.9,23.1c13.2,0,23.9-10.3,23.9-23.1c0-11.4-8.5-20.7-19.6-22.7V492.2l-38.1-36.8
	c2.7-3.7,4.3-8.3,4.3-13.2C904.1,429.5,893.4,419.1,880.2,419.1z"/>
<path class="st1" d="M707.4,532.8c-13.2,0-23.9,10.3-23.9,23.1c0,12.8,10.7,23.1,23.9,23.1c5.1,0,9.7-1.5,13.6-4.1L954,800
	c-3.4,4.5-5.5,10-5.5,16c0,15,12.6,27.2,28.1,27.2c15.5,0,28.1-12.2,28.1-27.2s-12.6-27.2-28.1-27.2c-6.2,0-11.9,2-16.6,5.4L727,569
	c2.7-3.7,4.3-8.3,4.3-13.1C731.3,543.1,720.6,532.8,707.4,532.8z M976.6,797c10.8,0,19.7,8.5,19.7,19c0,10.5-8.8,19-19.7,19
	c-10.8,0-19.6-8.5-19.6-19C956.9,805.5,965.7,797,976.6,797z"/>
<path class="st1" d="M1161,468.6c0-12.8-10.7-23.1-23.9-23.1c-13.2,0-23.9,10.3-23.9,23.1c0,11.3,8.5,20.7,19.6,22.7v70.2
	L1255.4,680c-2.7,3.7-4.3,8.3-4.3,13.1c0,12.8,10.7,23.1,23.9,23.1c13.2,0,23.9-10.3,23.9-23.1c0-12.7-10.7-23.1-23.9-23.1
	c-5.1,0-9.7,1.5-13.6,4.1l-120.1-116v-66.8C1152.5,489.4,1161,480,1161,468.6z"/>
<path class="st1" d="M1547.2,399c13.2,0,23.9-10.3,23.9-23.1s-10.7-23.1-23.9-23.1c-5.1,0-9.7,1.5-13.6,4.1l-30.9-29.9v-165
	c11.2-1.9,19.6-11.3,19.6-22.7c0-12.8-10.7-23.1-23.9-23.1s-23.9,10.3-23.9,23.1c0,11.4,8.5,20.7,19.6,22.7v168.4l33.4,32.3
	c-2.7,3.7-4.3,8.3-4.3,13.2C1523.3,388.7,1534,399,1547.2,399z"/>
<path class="st1" d="M964.2,462.2c13.2,0,23.9-10.3,23.9-23.1S977.4,416,964.2,416c-5.1,0-9.7,1.5-13.6,4.1l-67.9-65.6V232
	c13.5-2,23.9-13.2,23.9-26.8c0-15-12.6-27.2-28.1-27.2s-28.1,12.2-28.1,27.2c0,13.6,10.4,24.8,23.9,26.8v126l70.4,68
	c-2.7,3.7-4.3,8.3-4.3,13.2C940.3,451.9,951,462.2,964.2,462.2z M858.8,205.2c0-10.5,8.8-19,19.6-19c10.8,0,19.6,8.5,19.6,19
	c0,10.5-8.8,19-19.6,19C867.7,224.2,858.8,215.7,858.8,205.2z"/>
<path class="st1" d="M1058.9,440c11.2-1.9,19.6-11.3,19.6-22.7c0-12.8-10.7-23.1-23.9-23.1c-13.2,0-23.9,10.3-23.9,23.1
	c0,11.4,8.5,20.7,19.7,22.7v208.3l-51.8,50c-4.7-3.3-10.4-5.3-16.6-5.3c-15.5,0-28.1,12.2-28.1,27.2c0,15,12.6,27.2,28.1,27.2
	c15.5,0,28.1-12.2,28.1-27.2c0-6-2.1-11.5-5.5-16l54.2-52.4V440z M982.1,739.2c-10.8,0-19.7-8.5-19.7-19c0-10.5,8.8-19,19.7-19
	c10.8,0,19.7,8.5,19.7,19C1001.7,730.7,992.9,739.2,982.1,739.2z"/>
<path class="st1" d="M1408.3,425.8v267.9l94.8-91.7v-64.8c11.2-1.9,19.6-11.3,19.6-22.7c0-12.8-10.7-23.1-23.9-23.1
	c-13.2,0-23.9,10.3-23.9,23.1c0,11.4,8.5,20.7,19.7,22.7v61.4l-77.9,75.3V425.8c13.5-2,23.9-13.2,23.9-26.8
	c0-15-12.6-27.2-28.1-27.2c-15.5,0-28.1,12.2-28.1,27.2C1384.4,412.6,1394.8,423.8,1408.3,425.8z M1412.5,380
	c10.8,0,19.6,8.5,19.6,19c0,10.5-8.8,19-19.6,19c-10.8,0-19.7-8.5-19.7-19C1392.9,388.5,1401.7,380,1412.5,380z"/>
<path class="st1" d="M1147.5,686c13.2,0,23.9-10.3,23.9-23.1c0-12.8-10.7-23.1-23.9-23.1c-13.2,0-23.9,10.3-23.9,23.1
	c0,4.9,1.6,9.4,4.3,13.1l-65.9,63.7c-3.9-2.6-8.5-4.1-13.6-4.1c-13.2,0-23.9,10.3-23.9,23.1c0,12.8,10.7,23.1,23.9,23.1
	c13.2,0,23.9-10.3,23.9-23.1c0-4.9-1.6-9.4-4.3-13.1l65.9-63.7C1137.8,684.5,1142.5,686,1147.5,686z"/>
<path class="st1" d="M1209.6,424.7v162.9l103-99.5c3.9,2.6,8.5,4.1,13.6,4.1c13.2,0,23.9-10.3,23.9-23.1c0-12.8-10.7-23.1-23.9-23.1
	c-13.2,0-23.9,10.3-23.9,23.1c0,4.9,1.6,9.4,4.3,13.2l-88.5,85.5V424.7c11.2-1.9,19.6-11.3,19.6-22.7c0-12.8-10.7-23.1-23.9-23.1
	c-13.2,0-23.9,10.3-23.9,23.1C1189.9,413.4,1198.4,422.8,1209.6,424.7z"/>
<path class="st1" d="M1023.3,219.7c0,11.3,8.5,20.7,19.7,22.7v103.9l66.4,64.1l98.2-94.9l0,0l0.4-0.4l0.8-0.8l0,0l111.3-107.6V45.5
	c11.1-1.9,19.5-11.3,19.5-22.5c0-12.7-10.6-23-23.8-23c-13.1,0-23.8,10.3-23.8,23c0,11.3,8.4,20.6,19.5,22.5v157.8l-102.8,99.4V120
	c11.2-1.9,19.6-11.3,19.6-22.7c0-12.8-10.7-23.1-23.9-23.1c-13.2,0-23.9,10.3-23.9,23.1c0,11.3,8.5,20.7,19.7,22.7V311l-90.9,87.9
	l-57.9-55.9V242.4c11.2-1.9,19.6-11.3,19.6-22.7c0-12.8-10.7-23.1-23.9-23.1C1034,196.6,1023.3,206.9,1023.3,219.7z"/>
<path class="st1" d="M1288.3,814.2c-15.5-0.2-28.3,11.8-28.6,26.7c-0.2,13.6,10,24.9,23.4,27.2l-1.3,74.6l-102,95.5
	c-3.8-2.7-8.5-4.3-13.5-4.4c-13.2-0.2-24.1,10-24.3,22.7c-0.2,12.8,10.3,23.3,23.5,23.5c13.2,0.2,24.1-10,24.3-22.7
	c0.1-4.9-1.4-9.4-4.1-13.2l104.6-97.8l1.3-78c13.5-1.8,24.1-12.8,24.3-26.4C1316.3,826.9,1303.8,814.5,1288.3,814.2z M1287.6,860.4
	c-10.8-0.2-19.5-8.8-19.3-19.3c0.2-10.5,9.1-18.9,20-18.7c10.8,0.2,19.5,8.8,19.3,19.3C1307.3,852.2,1298.4,860.6,1287.6,860.4z"/>
<path class="st1" d="M708.3,268.8v207.8l-91.6,88.6V331.4c11.1-1.9,19.5-11.3,19.5-22.5c0-12.7-10.6-23-23.8-23
	c-13.1,0-23.8,10.3-23.8,23c0,11.3,8.4,20.6,19.5,22.5v233.8l-89.8-86.8v-87.2c11.1-1.9,19.5-11.3,19.5-22.5c0-12.7-10.6-23-23.8-23
	c-13.1,0-23.8,10.3-23.8,23c0,11.3,8.4,20.6,19.5,22.5v90.6l102.6,99.1L716.8,480V268.8c11.1-1.9,19.5-11.3,19.5-22.5
	c0-12.7-10.6-23-23.8-23c-13.1,0-23.8,10.3-23.8,23C688.8,257.6,697.2,266.9,708.3,268.8z"/>
<path class="st1" d="M1425.6,51v214.3l-151.1,146v-32.6c11.1-1.9,19.5-11.3,19.5-22.5c0-12.7-10.6-23-23.8-23
	c-13.1,0-23.8,10.3-23.8,23c0,11.3,8.4,20.6,19.5,22.6v52.4l168.1-162.4V51c11.1-1.9,19.5-11.3,19.5-22.5c0-12.7-10.6-23-23.8-23
	c-13.1,0-23.8,10.3-23.8,23C1406.1,39.7,1414.5,49,1425.6,51z"/>
<path class="st1" d="M447.4,824.6L555.6,720h90.1l159.6,154.3h251l78.4,75.8c-3.4,4.5-5.5,10-5.5,16c0,15,12.6,27.2,28.1,27.2
	c15.5,0,28.1-12.2,28.1-27.2c0-15-12.6-27.2-28.1-27.2c-6.2,0-11.9,2-16.6,5.4l-80.8-78.2h-251L409.7,480.3c3.4-4.5,5.5-10,5.5-16
	c0-15-12.6-27.2-28.1-27.2c-15.5,0-28.1,12.2-28.1,27.2s12.6,27.2,28.1,27.2c6.2,0,11.9-2,16.6-5.3l233.6,225.8H475.4l-82.7-79.9
	c2.7-3.7,4.2-8.2,4.2-13.1c0-12.7-10.6-23-23.8-23c-13.1,0-23.8,10.3-23.8,23s10.6,23,23.8,23c5,0,9.7-1.5,13.5-4.1l85.2,82.4h71.7
	l-102.2,98.8c-3.8-2.6-8.5-4.1-13.5-4.1c-13.1,0-23.8,10.3-23.8,23s10.6,23,23.8,23s23.8-10.3,23.8-23
	C451.6,832.8,450.1,828.3,447.4,824.6z M1157.3,947.1c10.8,0,19.7,8.5,19.7,19c0,10.5-8.8,19-19.7,19c-10.8,0-19.6-8.5-19.6-19
	C1137.7,955.6,1146.5,947.1,1157.3,947.1z M387.1,483.2c-10.8,0-19.7-8.5-19.7-19c0-10.5,8.8-19,19.7-19c10.8,0,19.6,8.5,19.6,19
	C406.7,474.7,397.9,483.2,387.1,483.2z"/>
<path class="st1" d="M1115.9,850.3c0-4.9-1.6-9.3-4.2-13.1l52.1-50.3v88.7c-11.1,1.9-19.5,11.3-19.5,22.5c0,12.7,10.6,23,23.8,23
	c13.1,0,23.8-10.3,23.8-23c0-11.3-8.4-20.6-19.5-22.5v-96.9l42.3-40.9h121.3c2,10.7,11.7,18.9,23.3,18.9c13.1,0,23.8-10.3,23.8-23
	c0-12.7-10.6-23-23.8-23c-11.7,0-21.3,8.1-23.3,18.9H1211l-105.4,101.8c-3.8-2.6-8.5-4.1-13.5-4.1c-13.1,0-23.8,10.3-23.8,23
	s10.6,23,23.8,23C1105.3,873.3,1115.9,863,1115.9,850.3z"/>
<path class="st1" d="M1489.7,914.6c13.1,0,23.8-10.3,23.8-23s-10.6-23-23.8-23c-5,0-9.7,1.5-13.5,4.1l-54.4-52.6v-44.5
	c11.1-1.9,19.5-11.3,19.5-22.6c0-12.7-10.6-23-23.8-23c-13.1,0-23.8,10.3-23.8,23c0,11.3,8.4,20.6,19.5,22.6v47.9l56.9,55
	c-2.7,3.7-4.2,8.2-4.2,13.1C1465.9,904.4,1476.5,914.6,1489.7,914.6z"/>
</svg>
